<svg width="19" height="20" viewBox="0 0 19 20" fill="none" xmlns="http://www.w3.org/2000/svg">
<path d="M14.2684 18.4143L10.9513 14.268V12.1948H8.46354V14.268L5.14648 18.4143" stroke="#696969" stroke-width="2"/>
<path d="M4.31739 2.65853V1H15.0978V7.63412C15.0978 9.29265 13.8539 12.1951 9.70761 12.1951C5.56128 12.1951 4.31739 9.29265 4.31739 7.63412V2.65853Z" stroke="#696969" stroke-width="2"/>
<path d="M18.0001 5.14622C18.0001 2.24374 15.0977 3.07306 15.0977 3.07306V7.21938C15.0977 7.21938 18.0001 8.04869 18.0001 5.14622Z" stroke="#696969" stroke-width="2"/>
<path d="M0.999918 5.14622C0.999918 2.24374 3.90234 3.07306 3.90234 3.07306V7.21938C3.90234 7.21938 0.999918 8.04869 0.999918 5.14622Z" stroke="#696969" stroke-width="2"/>
<rect x="3.07284" y="17.9996" width="13.2682" height="0.829265" fill="#696969" stroke="#696969" stroke-width="0.829265"/>
</svg>
