<svg width="28" height="29" viewBox="0 0 28 29" fill="none" xmlns="http://www.w3.org/2000/svg">
<path d="M21.2925 27.6343L16.2194 21.2928V18.1221H12.4145V21.2928L7.34131 27.6343" stroke="#696969" stroke-width="2"/>
<path d="M6.07325 3.53659V1H22.5611V11.1463C22.5611 13.6829 20.6586 18.122 14.3172 18.122C7.97568 18.122 6.07325 13.6829 6.07325 11.1463V3.53659Z" stroke="#696969" stroke-width="2"/>
<path d="M27.0001 7.34141C27.0001 2.90231 22.561 4.17067 22.561 4.17067V10.5121C22.561 10.5121 27.0001 11.7805 27.0001 7.34141Z" stroke="#696969" stroke-width="2"/>
<path d="M0.99994 7.34141C0.99994 2.90231 5.43896 4.17067 5.43896 4.17067V10.5121C5.43896 10.5121 0.99994 11.7805 0.99994 7.34141Z" stroke="#696969" stroke-width="2"/>
<rect x="4.03662" y="26.8662" width="20.561" height="1.53659" fill="#696969" stroke="#696969"/>
</svg>
