<svg width="90" height="90" viewBox="0 0 90 90" fill="none" xmlns="http://www.w3.org/2000/svg">
<rect width="90" height="90" rx="20" fill="#191F00"/>
<path d="M56 42C60.4183 42 64 38.9706 64 34C64 29.0294 60.4183 26 56 26" stroke="#CCFF00" stroke-width="4" stroke-linecap="round"/>
<path d="M58 47C56.8954 47 56 47.8954 56 49C56 50.1046 56.8954 51 58 51V49V47ZM68 64V66H70V64H68ZM58 49V51H65V49V47H58V49ZM68 52H66V64H68H70V52H68ZM68 64V62H56V64V66H68V64ZM65 49V51C65.5523 51 66 51.4477 66 52H68H70C70 49.2386 67.7614 47 65 47V49Z" fill="#CCFF00"/>
<path d="M38.9995 26C44.1765 26 48.3335 30.1414 48.3335 35.2002C48.3334 40.2589 44.1765 44.4004 38.9995 44.4004C33.8227 44.4002 29.6666 40.2588 29.6665 35.2002C29.6665 30.1415 33.8226 26.0002 38.9995 26Z" stroke="#CCFF00" stroke-width="4"/>
<mask id="path-5-inside-1_442_977" fill="white">
<path d="M22 52.2002C22 50.5433 23.3431 49.2002 25 49.2002H53C54.6569 49.2002 56 50.5433 56 52.2002V66.0002H22V52.2002Z"/>
</mask>
<path d="M22 52.2002C22 50.5433 23.3431 49.2002 25 49.2002H53C54.6569 49.2002 56 50.5433 56 52.2002V66.0002H22V52.2002Z" stroke="#CCFF00" stroke-width="8" mask="url(#path-5-inside-1_442_977)"/>
</svg>
