<svg width="24" height="21" viewBox="0 0 24 21" fill="none" xmlns="http://www.w3.org/2000/svg">
<path d="M17 9C19.2091 9 21 7.48528 21 5C21 2.51472 19.2091 1 17 1" stroke="#CCFF00" stroke-width="2" stroke-linecap="round"/>
<path d="M18 11.5C17.4477 11.5 17 11.9477 17 12.5C17 13.0523 17.4477 13.5 18 13.5V12.5V11.5ZM23 20V21H24V20H23ZM18 12.5V13.5H20V12.5V11.5H18V12.5ZM23 15.5H22V20H23H24V15.5H23ZM23 20V19H17V20V21H23V20ZM20 12.5V13.5C21.1046 13.5 22 14.3954 22 15.5H23H24C24 13.2909 22.2091 11.5 20 11.5V12.5Z" fill="#CCFF00"/>
<path d="M8.50031 1C11.0885 1.00017 13.1661 3.07051 13.1663 5.59961C13.1663 8.12889 11.0887 10.2 8.50031 10.2002C5.91179 10.2002 3.83331 8.129 3.83331 5.59961C3.83353 3.0704 5.91192 1 8.50031 1Z" stroke="#CCFF00" stroke-width="2"/>
<path d="M3 13.6H14C15.1046 13.6 16 14.4954 16 15.6V20.0004H1V15.6C1 14.4954 1.89543 13.6 3 13.6Z" stroke="#CCFF00" stroke-width="2"/>
</svg>
