<svg width="24" height="21" viewBox="0 0 24 21" fill="none" xmlns="http://www.w3.org/2000/svg">
<path d="M17 9C19.2091 9 21 7.48528 21 5C21 2.51472 19.2091 1 17 1" stroke="#696969" stroke-width="2" stroke-linecap="round"/>
<path d="M18 11.5C17.4477 11.5 17 11.9477 17 12.5C17 13.0523 17.4477 13.5 18 13.5V12.5V11.5ZM23 20V21H24V20H23ZM18 12.5V13.5H20V12.5V11.5H18V12.5ZM23 15.5H22V20H23H24V15.5H23ZM23 20V19H17V20V21H23V20ZM20 12.5V13.5C21.1046 13.5 22 14.3954 22 15.5H23H24C24 13.2909 22.2091 11.5 20 11.5V12.5Z" fill="#696969"/>
<path d="M8.50049 1C11.0887 1.00017 13.1663 3.07051 13.1665 5.59961C13.1665 8.12889 11.0889 10.2 8.50049 10.2002C5.91197 10.2002 3.8335 8.129 3.8335 5.59961C3.83371 3.0704 5.9121 1 8.50049 1Z" stroke="#696969" stroke-width="2"/>
<path d="M3 13.6001H14C15.1046 13.6001 16 14.4955 16 15.6001V20.0005H1V15.6001C1 14.4955 1.89543 13.6001 3 13.6001Z" stroke="#696969" stroke-width="2"/>
</svg>
