<svg width="23" height="23" viewBox="0 0 23 23" fill="none" xmlns="http://www.w3.org/2000/svg">
<path d="M17 22L13 17V14.5H10V17L6 22" stroke="#CCFF00" stroke-width="2"/>
<path d="M5.00001 3V1H18V9C18 11 16.5 14.5 11.5 14.5C6.5 14.5 5.00001 11 5.00001 9V3Z" stroke="#CCFF00" stroke-width="2"/>
<path d="M21.5 6.00006C21.5 2.5 18 3.50006 18 3.50006V8.50006C18 8.50006 21.5 9.50012 21.5 6.00006Z" stroke="#CCFF00" stroke-width="2"/>
<path d="M1 6.00006C1 2.5 4.5 3.50006 4.5 3.50006V8.50006C4.5 8.50006 1 9.50012 1 6.00006Z" stroke="#CCFF00" stroke-width="2"/>
<rect x="3.5" y="21.5" width="16" height="1" fill="#CCFF00" stroke="#CCFF00"/>
</svg>
